<mxfile host="app.diagrams.net" agent="Mozilla/5.0 (Windows NT 10.0; Win64; x64) AppleWebKit/537.36 (KHTML, like Gecko) Chrome/134.0.0.0 Safari/537.36" version="26.1.1">
  <diagram name="Page-1" id="d66fe2ae-3e9f-cf2f-6d29-e24063ad5d60">
    <mxGraphModel dx="1803" dy="997" grid="1" gridSize="10" guides="1" tooltips="1" connect="1" arrows="1" fold="1" page="1" pageScale="1" pageWidth="2336" pageHeight="1654" background="none" math="0" shadow="0">
      <root>
        <mxCell id="0" />
        <mxCell id="1" parent="0" />
        <mxCell id="huy9ExqXisEb2lXBNoZ7-32" value="" style="shape=link;html=1;rounded=0;fontFamily=Helvetica;fontSize=12;fontColor=default;" edge="1" parent="1">
          <mxGeometry width="100" relative="1" as="geometry">
            <mxPoint x="620" y="630" as="sourcePoint" />
            <mxPoint x="720" y="630" as="targetPoint" />
          </mxGeometry>
        </mxCell>
        <mxCell id="huy9ExqXisEb2lXBNoZ7-33" value="" style="shape=link;html=1;rounded=0;fontFamily=Helvetica;fontSize=12;fontColor=default;" edge="1" parent="1">
          <mxGeometry width="100" relative="1" as="geometry">
            <mxPoint x="620" y="439.57" as="sourcePoint" />
            <mxPoint x="720" y="439.57" as="targetPoint" />
          </mxGeometry>
        </mxCell>
        <mxCell id="huy9ExqXisEb2lXBNoZ7-21" value="" style="shape=link;html=1;rounded=0;fontFamily=Helvetica;fontSize=12;fontColor=default;" edge="1" parent="1">
          <mxGeometry width="100" relative="1" as="geometry">
            <mxPoint x="620" y="244.72" as="sourcePoint" />
            <mxPoint x="720" y="244.72" as="targetPoint" />
          </mxGeometry>
        </mxCell>
        <mxCell id="huy9ExqXisEb2lXBNoZ7-2" value="" style="fontColor=#0066CC;verticalAlign=top;verticalLabelPosition=bottom;labelPosition=center;align=center;html=1;outlineConnect=0;fillColor=#CCCCCC;strokeColor=#6881B3;gradientColor=none;gradientDirection=north;strokeWidth=2;shape=mxgraph.networks.firewall;" vertex="1" parent="1">
          <mxGeometry x="580" y="220" width="60" height="50" as="geometry" />
        </mxCell>
        <mxCell id="huy9ExqXisEb2lXBNoZ7-5" value="" style="endArrow=none;html=1;rounded=0;entryX=0.5;entryY=1;entryDx=0;entryDy=0;entryPerimeter=0;exitX=0.5;exitY=0;exitDx=0;exitDy=0;exitPerimeter=0;" edge="1" parent="1" source="huy9ExqXisEb2lXBNoZ7-2" target="huy9ExqXisEb2lXBNoZ7-3">
          <mxGeometry width="50" height="50" relative="1" as="geometry">
            <mxPoint x="730" y="390" as="sourcePoint" />
            <mxPoint x="780" y="340" as="targetPoint" />
            <Array as="points">
              <mxPoint x="610" y="190" />
            </Array>
          </mxGeometry>
        </mxCell>
        <mxCell id="huy9ExqXisEb2lXBNoZ7-7" value="" style="endArrow=none;html=1;rounded=0;entryX=0.5;entryY=1;entryDx=0;entryDy=0;entryPerimeter=0;exitX=0.5;exitY=0;exitDx=0;exitDy=0;exitPerimeter=0;" edge="1" parent="1" source="huy9ExqXisEb2lXBNoZ7-2" target="huy9ExqXisEb2lXBNoZ7-4">
          <mxGeometry width="50" height="50" relative="1" as="geometry">
            <mxPoint x="620" y="230" as="sourcePoint" />
            <mxPoint x="620" y="170" as="targetPoint" />
          </mxGeometry>
        </mxCell>
        <mxCell id="huy9ExqXisEb2lXBNoZ7-8" value="" style="endArrow=none;html=1;rounded=0;exitX=0.5;exitY=0;exitDx=0;exitDy=0;exitPerimeter=0;" edge="1" parent="1">
          <mxGeometry width="50" height="50" relative="1" as="geometry">
            <mxPoint x="750" y="220" as="sourcePoint" />
            <mxPoint x="610" y="160" as="targetPoint" />
          </mxGeometry>
        </mxCell>
        <mxCell id="huy9ExqXisEb2lXBNoZ7-9" value="" style="endArrow=none;html=1;rounded=0;entryX=0.5;entryY=1;entryDx=0;entryDy=0;entryPerimeter=0;exitX=0.5;exitY=0;exitDx=0;exitDy=0;exitPerimeter=0;" edge="1" parent="1">
          <mxGeometry width="50" height="50" relative="1" as="geometry">
            <mxPoint x="749.72" y="220" as="sourcePoint" />
            <mxPoint x="749.72" y="160" as="targetPoint" />
          </mxGeometry>
        </mxCell>
        <mxCell id="huy9ExqXisEb2lXBNoZ7-14" value="" style="fontColor=#0066CC;verticalAlign=top;verticalLabelPosition=bottom;labelPosition=center;align=center;html=1;outlineConnect=0;fillColor=#CCCCCC;strokeColor=#6881B3;gradientColor=none;gradientDirection=north;strokeWidth=2;shape=mxgraph.networks.firewall;" vertex="1" parent="1">
          <mxGeometry x="715" y="220" width="60" height="50" as="geometry" />
        </mxCell>
        <mxCell id="huy9ExqXisEb2lXBNoZ7-22" value="" style="shape=link;html=1;rounded=0;fontFamily=Helvetica;fontSize=12;fontColor=default;" edge="1" parent="1">
          <mxGeometry width="100" relative="1" as="geometry">
            <mxPoint x="630" y="152.72" as="sourcePoint" />
            <mxPoint x="730" y="152.72" as="targetPoint" />
          </mxGeometry>
        </mxCell>
        <mxCell id="huy9ExqXisEb2lXBNoZ7-3" value="" style="fontColor=#0066CC;verticalAlign=top;verticalLabelPosition=bottom;labelPosition=center;align=center;html=1;outlineConnect=0;fillColor=#CCCCCC;strokeColor=#6881B3;gradientColor=none;gradientDirection=north;strokeWidth=2;shape=mxgraph.networks.patch_panel;" vertex="1" parent="1">
          <mxGeometry x="575" y="140" width="70" height="20" as="geometry" />
        </mxCell>
        <mxCell id="huy9ExqXisEb2lXBNoZ7-4" value="" style="fontColor=#0066CC;verticalAlign=top;verticalLabelPosition=bottom;labelPosition=center;align=center;html=1;outlineConnect=0;fillColor=#CCCCCC;strokeColor=#6881B3;gradientColor=none;gradientDirection=north;strokeWidth=2;shape=mxgraph.networks.patch_panel;" vertex="1" parent="1">
          <mxGeometry x="715" y="140" width="70" height="20" as="geometry" />
        </mxCell>
        <mxCell id="huy9ExqXisEb2lXBNoZ7-28" value="" style="shape=mxgraph.rack.oracle.netra_ct9000_server;html=1;labelPosition=right;align=left;spacingLeft=15;dashed=0;shadow=0;fillColor=#ffffff;strokeColor=default;verticalAlign=middle;fontFamily=Helvetica;fontSize=12;fontColor=default;" vertex="1" parent="1">
          <mxGeometry x="570" y="390" width="75" height="100" as="geometry" />
        </mxCell>
        <mxCell id="huy9ExqXisEb2lXBNoZ7-29" value="" style="shape=mxgraph.rack.oracle.netra_ct9000_server;html=1;labelPosition=right;align=left;spacingLeft=15;dashed=0;shadow=0;fillColor=#ffffff;strokeColor=default;verticalAlign=middle;fontFamily=Helvetica;fontSize=12;fontColor=default;" vertex="1" parent="1">
          <mxGeometry x="710" y="390" width="75" height="100" as="geometry" />
        </mxCell>
        <mxCell id="huy9ExqXisEb2lXBNoZ7-30" value="" style="shape=mxgraph.rack.cisco.cisco_catalyst_6509_switch;html=1;labelPosition=right;align=left;spacingLeft=15;dashed=0;shadow=0;fillColor=#ffffff;strokeColor=default;verticalAlign=middle;fontFamily=Helvetica;fontSize=12;fontColor=default;" vertex="1" parent="1">
          <mxGeometry x="570" y="570" width="75" height="110" as="geometry" />
        </mxCell>
        <mxCell id="huy9ExqXisEb2lXBNoZ7-31" value="" style="shape=mxgraph.rack.cisco.cisco_catalyst_6509_switch;html=1;labelPosition=right;align=left;spacingLeft=15;dashed=0;shadow=0;fillColor=#ffffff;strokeColor=default;verticalAlign=middle;fontFamily=Helvetica;fontSize=12;fontColor=default;" vertex="1" parent="1">
          <mxGeometry x="710" y="570" width="75" height="110" as="geometry" />
        </mxCell>
        <mxCell id="huy9ExqXisEb2lXBNoZ7-34" value="" style="shape=mxgraph.rack.cisco.cisco_nexus_3016_switch;html=1;labelPosition=right;align=left;spacingLeft=15;dashed=0;shadow=0;fillColor=#ffffff;strokeColor=default;verticalAlign=middle;fontFamily=Helvetica;fontSize=12;fontColor=default;" vertex="1" parent="1">
          <mxGeometry x="320" y="760" width="161" height="15" as="geometry" />
        </mxCell>
      </root>
    </mxGraphModel>
  </diagram>
</mxfile>
